<?xml version="1.0" standalone="no"?>
<!DOCTYPE svg PUBLIC "-//W3C//DTD SVG 20010904//EN"
 "http://www.w3.org/TR/2001/REC-SVG-20010904/DTD/svg10.dtd">
<svg version="1.0" xmlns="http://www.w3.org/2000/svg"
 width="936.000000pt" height="804.000000pt" viewBox="0 0 936.000000 804.000000"
 preserveAspectRatio="xMidYMid meet">

<g transform="translate(0.000000,804.000000) scale(0.100000,-0.100000)"
fill="#000000" stroke="none">
<path d="M4595 6583 c-343 -14 -673 -102 -1000 -265 -374 -188 -744 -529 -954
-881 -234 -390 -353 -814 -353 -1252 0 -1106 751 -2066 1824 -2329 425 -104
892 -89 1302 43 329 107 628 278 884 508 91 82 83 74 158 159 251 283 415 570
517 904 80 265 108 450 108 715 0 338 -62 643 -193 945 -170 393 -399 683
-770 977 -179 141 -486 297 -733 371 -252 76 -544 114 -790 105z m389 -198
c300 -43 559 -133 838 -292 308 -176 609 -480 792 -803 59 -104 140 -285 178
-400 67 -199 133 -584 106 -617 -8 -10 -60 -13 -197 -13 -202 0 -186 -3 -305
65 -40 23 -59 28 -108 26 -33 -1 -73 -8 -88 -16 -27 -14 -90 -82 -90 -97 0
-14 -62 -98 -83 -113 -27 -19 -61 -19 -76 -1 -6 8 -29 65 -50 128 -43 129 -59
162 -93 199 -48 52 -122 70 -182 45 -73 -31 -103 -96 -146 -318 -16 -80 -36
-160 -44 -177 -16 -31 -55 -49 -76 -36 -18 11 -38 65 -50 136 -19 108 -19 112
-25 169 -11 104 -43 237 -70 292 -23 46 -35 59 -75 78 -80 38 -148 6 -189 -89
-31 -74 -64 -240 -77 -396 -3 -38 -12 -119 -20 -180 -9 -60 -17 -126 -19 -145
-10 -90 -32 -180 -45 -180 -37 0 -66 217 -115 840 -53 683 -83 810 -190 810
-108 0 -142 -132 -190 -725 -16 -200 -15 -180 -50 -745 -14 -223 -30 -436 -36
-475 -6 -38 -13 -89 -16 -112 -7 -59 -20 -54 -27 10 -12 101 -33 338 -34 387
-1 14 -3 59 -6 100 -8 116 -16 253 -22 385 -3 66 -8 149 -10 185 -2 36 -5 119
-8 185 -6 182 -15 338 -31 570 -4 50 -7 99 -7 110 -1 60 -29 381 -38 445 -24
166 -41 223 -76 258 -17 17 -41 32 -52 32 -28 0 -80 -46 -96 -84 -29 -71 -61
-257 -71 -426 -3 -47 -8 -121 -11 -165 -3 -44 -7 -118 -9 -165 -3 -47 -7 -121
-10 -165 -3 -44 -7 -116 -9 -160 -10 -170 -31 -458 -40 -560 -2 -22 -7 -71
-10 -110 -13 -147 -39 -265 -58 -265 -22 0 -39 68 -78 299 -23 139 -51 278
-61 309 -22 64 -78 128 -120 137 -43 10 -108 -13 -141 -48 -27 -29 -88 -142
-88 -164 0 -24 -63 -200 -77 -215 -28 -31 -57 -21 -123 40 -84 78 -125 91
-277 92 -82 0 -124 4 -129 12 -16 25 9 256 43 398 79 333 228 647 421 890 371
465 907 764 1487 829 55 6 114 13 130 15 58 8 321 -4 429 -19z m-1084 -910 c8
-40 37 -400 38 -465 0 -8 5 -89 10 -180 6 -91 10 -174 10 -185 0 -11 3 -66 6
-122 4 -57 9 -149 12 -205 2 -57 7 -148 10 -203 3 -55 7 -143 10 -195 9 -195
19 -358 29 -485 3 -38 8 -97 10 -130 5 -62 13 -144 21 -205 2 -19 6 -49 8 -66
13 -104 67 -204 111 -204 108 0 144 170 190 885 53 822 89 1261 108 1283 17
21 22 8 42 -128 2 -8 5 -51 9 -95 3 -44 9 -105 13 -135 3 -30 6 -59 4 -64 -4
-16 40 -500 60 -666 21 -180 41 -271 72 -340 28 -63 52 -80 114 -80 46 0 54 3
79 33 15 17 34 48 42 67 20 48 52 202 57 280 3 36 8 76 11 90 3 14 8 50 10 80
8 103 35 305 50 370 18 80 37 109 61 94 22 -14 38 -76 58 -228 31 -233 74
-373 126 -410 109 -76 241 -13 288 137 11 36 29 117 41 181 28 156 41 191 70
191 33 0 55 -36 99 -163 49 -142 78 -188 138 -214 91 -40 186 1 260 112 81
120 83 123 120 117 19 -3 57 -20 86 -38 81 -50 131 -59 328 -59 135 0 179 -3
188 -13 25 -31 -27 -381 -86 -577 -35 -119 -105 -287 -171 -410 -143 -269
-307 -467 -572 -687 -238 -197 -591 -363 -920 -431 -182 -38 -272 -47 -475
-46 -327 1 -600 58 -895 188 -463 204 -863 587 -1082 1036 -138 284 -198 504
-233 862 -7 75 0 78 155 78 l122 0 62 -60 c92 -88 152 -107 235 -74 63 25 90
71 142 248 27 89 63 176 73 176 3 0 11 2 18 5 30 12 50 -61 93 -345 43 -280
84 -394 157 -431 73 -37 125 -17 156 63 21 52 41 123 47 163 19 123 50 456 60
635 2 41 7 113 10 160 4 47 7 94 7 105 2 59 30 486 38 584 11 123 17 155 33
186 l11 20 3 -20 c2 -11 8 -42 13 -70z"/>
</g>
</svg>
