<?xml version="1.0" standalone="no"?>
<!DOCTYPE svg PUBLIC "-//W3C//DTD SVG 20010904//EN"
 "http://www.w3.org/TR/2001/REC-SVG-20010904/DTD/svg10.dtd">
<svg version="1.0" xmlns="http://www.w3.org/2000/svg"
 width="605.000000pt" height="643.000000pt" viewBox="0 0 605.000000 643.000000"
 preserveAspectRatio="xMidYMid meet">

<g transform="translate(0.000000,643.000000) scale(0.100000,-0.100000)"
fill="#000000" stroke="none">
<path d="M2440 6144 c-545 -47 -993 -219 -1385 -533 -443 -353 -750 -842 -870
-1383 -45 -200 -58 -330 -58 -548 0 -218 13 -348 58 -548 79 -355 244 -700
474 -987 353 -443 842 -750 1383 -870 200 -45 330 -58 548 -58 218 0 348 13
548 58 355 79 700 244 987 474 443 353 750 842 870 1383 45 200 58 330 58 548
0 218 -13 348 -58 548 -79 355 -244 700 -474 987 -402 504 -959 820 -1601 910
-111 15 -394 27 -480 19z m456 -218 c435 -66 783 -215 1109 -475 151 -121 235
-205 356 -356 294 -367 450 -772 493 -1277 l4 -48 -197 0 -197 0 -76 46 c-79
46 -163 67 -205 49 -10 -4 -23 -9 -30 -11 -44 -9 -122 -101 -107 -125 4 -7 3
-9 -3 -6 -6 4 -24 -16 -41 -43 -39 -62 -78 -82 -104 -51 -9 12 -35 78 -58 147
-43 129 -91 210 -123 208 -9 -1 -14 2 -11 7 3 5 -7 14 -21 19 -35 13 -138 13
-130 0 3 -6 -1 -7 -10 -4 -23 9 -80 -56 -104 -120 -11 -29 -34 -125 -50 -212
-31 -158 -49 -205 -84 -212 -9 -2 -23 7 -31 20 -16 24 -44 141 -52 213 -11
111 -38 265 -55 322 -61 195 -249 215 -325 35 -26 -61 -51 -204 -79 -442 -28
-250 -54 -425 -65 -455 -23 -61 -65 271 -110 870 -34 460 -63 664 -105 744
-33 65 -111 91 -163 55 -84 -59 -120 -302 -177 -1224 -28 -459 -53 -799 -64
-880 l-7 -55 -7 60 c-12 106 -36 477 -62 970 -72 1369 -91 1580 -154 1704 -36
69 -116 79 -165 20 -65 -76 -93 -286 -136 -1009 -38 -639 -69 -990 -98 -1095
l-8 -30 -12 34 c-7 19 -30 142 -52 275 -53 323 -76 395 -140 450 -26 21 -42
26 -89 26 -71 0 -112 -24 -158 -94 -34 -49 -98 -230 -88 -247 4 -5 1 -9 -4 -9
-6 0 -11 -7 -11 -15 0 -28 -40 -95 -56 -95 -9 0 -44 27 -78 60 -88 85 -113 93
-287 98 l-146 4 4 47 c42 503 199 909 492 1276 121 151 205 235 356 356 365
292 755 443 1270 493 78 8 352 -3 451 -18z m-1112 -1021 c13 -159 21 -265 41
-605 3 -47 14 -274 25 -505 29 -597 50 -936 71 -1135 14 -132 39 -270 50 -270
4 0 6 -6 3 -13 -7 -20 38 -79 69 -90 32 -10 81 -1 72 13 -3 6 1 7 10 4 24 -10
65 92 85 215 23 135 45 381 70 786 45 726 85 1211 100 1220 9 6 26 -146 60
-565 48 -584 66 -728 107 -858 30 -96 63 -137 116 -147 52 -10 86 1 123 40 60
64 87 184 129 565 14 129 30 260 36 292 14 80 38 158 49 158 16 0 38 -97 65
-282 29 -202 52 -287 94 -345 40 -55 89 -76 162 -71 122 9 174 89 225 350 35
176 46 208 69 208 23 0 43 -38 86 -168 63 -189 120 -248 230 -239 95 8 146 47
225 174 24 39 54 75 65 78 13 4 37 -3 67 -19 147 -82 137 -80 364 -84 l207 -4
-5 -62 c-43 -509 -199 -913 -493 -1281 -121 -151 -205 -235 -356 -356 -407
-326 -888 -493 -1415 -493 -527 0 -1008 167 -1415 493 -151 121 -235 205 -356
356 -294 368 -450 772 -493 1282 l-6 62 146 3 c80 2 148 -1 152 -6 3 -5 -1 -6
-8 -1 -8 5 10 -17 40 -48 29 -31 57 -54 62 -51 4 3 8 1 8 -4 0 -15 76 -42 116
-42 111 0 161 66 234 307 17 58 41 115 55 130 l24 28 14 -35 c16 -38 34 -131
72 -371 33 -213 64 -307 118 -364 77 -80 164 -71 210 22 61 121 85 319 132
1068 38 623 58 856 70 844 2 -2 10 -85 19 -184z"/>
</g>
</svg>
