<?xml version="1.0" standalone="no"?>
<!DOCTYPE svg PUBLIC "-//W3C//DTD SVG 20010904//EN"
 "http://www.w3.org/TR/2001/REC-SVG-20010904/DTD/svg10.dtd">
<svg version="1.0" xmlns="http://www.w3.org/2000/svg"
 width="563.000000pt" height="411.000000pt" viewBox="0 0 563.000000 411.000000"
 preserveAspectRatio="xMidYMid meet">

<g transform="translate(0.000000,411.000000) scale(0.100000,-0.100000)"
fill="#000000" stroke="none">
<path d="M2285 3665 c-375 -52 -710 -189 -980 -400 -263 -206 -439 -464 -523
-765 -24 -88 -26 -109 -26 -300 0 -191 2 -212 26 -300 128 -460 480 -827 992
-1034 379 -153 861 -189 1284 -97 692 151 1216 630 1327 1212 20 107 20 331 0
438 -73 382 -324 725 -702 960 -247 153 -512 245 -827 286 -133 18 -443 18
-571 0z m542 -75 c538 -72 977 -308 1250 -674 117 -157 194 -330 229 -512 19
-102 21 -290 4 -386 -12 -65 -14 -70 -81 -133 -107 -101 -143 -90 -259 81
-130 191 -188 236 -258 200 -55 -29 -91 -78 -177 -248 -138 -269 -159 -281
-233 -133 -16 33 -58 139 -92 235 -75 209 -108 278 -150 314 -100 84 -168 -32
-280 -484 -58 -233 -119 -410 -141 -410 -32 0 -87 192 -154 545 -95 500 -126
622 -172 683 -45 60 -97 33 -133 -72 -40 -116 -74 -318 -166 -981 -53 -387
-100 -625 -123 -625 -4 0 -15 30 -24 68 -38 159 -74 440 -147 1167 -79 781
-121 1066 -160 1090 -23 14 -3 29 113 85 192 94 423 161 642 189 100 12 420
13 512 1z m-1381 -381 c-43 -183 -97 -736 -103 -1056 -5 -236 -2 -265 24 -230
5 6 22 170 37 362 40 518 92 945 116 960 8 5 24 -62 45 -195 23 -150 41 -308
100 -885 86 -837 121 -1093 165 -1193 11 -25 20 -46 20 -48 0 -5 -122 47 -195
83 -240 120 -433 279 -582 477 -116 154 -194 328 -227 506 -21 107 -21 313 0
420 48 254 183 494 390 689 80 76 215 183 222 177 1 -2 -4 -32 -12 -67z m858
-667 c26 -85 53 -208 121 -567 93 -485 146 -627 226 -596 64 24 92 92 185 446
86 329 138 470 174 470 24 0 74 -105 146 -305 97 -269 135 -339 198 -360 74
-24 115 21 236 261 91 180 120 219 159 219 41 0 63 -21 142 -137 84 -124 131
-178 170 -199 42 -21 101 -18 140 9 19 13 40 26 47 31 8 5 5 -11 -8 -43 -101
-258 -328 -518 -592 -679 -241 -148 -494 -236 -793 -278 -119 -16 -418 -18
-536 -3 -179 22 -432 86 -405 101 56 32 96 213 181 838 85 625 140 897 174
875 6 -3 21 -40 35 -83z"/>
</g>
</svg>
